<?xml version="1.0" encoding="utf-8"?>
<!-- Generator: Adobe Illustrator 27.1.1, SVG Export Plug-In . SVG Version: 6.00 Build 0)  -->
<svg version="1.1" id="Layer_1" xmlns="http://www.w3.org/2000/svg" xmlns:xlink="http://www.w3.org/1999/xlink" x="0px" y="0px"
	 viewBox="0 0 394 80" style="enable-background:new 0 0 394 80;" xml:space="preserve">
<style type="text/css">
	.st0{fill:#211915;}
</style>
<g>
	<path class="st0" d="M328.9,5.4c-2,0-3,1.5-3,4.6c0,3.1,1,4.7,3,4.7c1,0,1.8-0.4,2.3-1.3c0.6-0.8,0.8-2,0.8-3.4
		c0-1.5-0.3-2.6-0.8-3.4C330.7,5.8,329.9,5.4,328.9,5.4z"/>
	<path class="st0" d="M179.4,23.6c-3.7,0-6.9,0.8-9.8,2.4c-2.9,1.6-5.2,3.9-6.9,6.9h-0.2c-2.3-6.2-7.7-9.3-15.9-9.3
		c-3.2,0-6.2,0.7-8.8,2.1c-2.7,1.4-4.7,3.5-6.2,6.1h-0.3l-1-7.2h-4V77h4.8V48.1c0-7,1.3-12.2,3.8-15.4c2.5-3.2,6.5-4.8,12-4.8
		c8.1,0,12.2,4.4,12.2,13.3V77h4.9V46.3c0-6.3,1.3-11,3.9-13.9c2.6-3,6.5-4.4,11.9-4.4c4.1,0,7.2,1.2,9.2,3.5c2,2.3,3,6.1,3,11.2V77
		h4.7V42.8c0-6.7-1.4-11.5-4.3-14.6C189.4,25.1,185.1,23.6,179.4,23.6z"/>
	<path class="st0" d="M104,53.6c0,7.1-1.5,12.2-4.4,15.4c-2.9,3.2-7.5,4.7-13.8,4.7c-4.7,0-8.1-1.2-10.3-3.6
		c-2.2-2.4-3.3-6.2-3.3-11.5v-34h-4.7v34.3c0,12.8,6,19.2,17.9,19.2c8.7,0,14.8-2.7,18.2-8.2h0.3l0.9,7.2h4.1V24.6H104L104,53.6z"/>
	<path class="st0" d="M33.2,23.6c-8.7,0-14.8,2.7-18.2,8.2h-0.3l-0.9-7.2H9.8V77h4.8V48.1c0-7.1,1.5-12.2,4.4-15.4s7.5-4.8,13.8-4.8
		c4.7,0,8.1,1.2,10.3,3.6c2.2,2.4,3.3,6.2,3.3,11.5v34H51V42.8C51,30,45.1,23.6,33.2,23.6z"/>
	<rect x="326.5" y="24.6" class="st0" width="4.8" height="52.4"/>
	<path class="st0" d="M304.2,20.8c0,3.9,0.1,7.9,0.3,11.9h-0.3c-2.2-3.3-4.7-5.7-7.4-7.1c-2.8-1.4-6-2.1-9.8-2.1
		c-7.2,0-12.8,2.4-16.5,7.2c-3.8,4.8-5.7,11.7-5.7,20.8c0,8.6,1.9,15.2,5.7,19.7c3.8,4.5,9.4,6.8,16.6,6.8c7.5,0,13.2-3,17.2-9h0.4
		l1.2,8h3.1V2h-4.7V20.8z M304.2,51.6c0,7.9-1.4,13.6-4.1,17c-2.8,3.4-7.1,5.2-13,5.2c-11.5,0-17.3-7.4-17.3-22.3
		c0-7.7,1.4-13.5,4.3-17.5c2.9-4,7.2-6,12.9-6c6.1,0,10.5,1.8,13.2,5.3c2.7,3.6,4.1,9.4,4.1,17.5L304.2,51.6L304.2,51.6z"/>
	<path class="st0" d="M380,28.2c-2.8-3-7.1-4.5-12.9-4.5c-5.6,0-11.3,1.3-17.1,4.1l1.8,4.1c5.2-2.7,10.2-4.1,15.1-4.1
		c4.5,0,7.8,1.3,9.8,3.8c2,2.5,3,6.3,3,11.3v3.5l-10,0.3c-8.1,0.2-14.2,1.7-18.5,4.5c-4.3,2.8-6.4,6.8-6.4,11.9
		c0,4.7,1.4,8.3,4.3,11c2.9,2.6,6.9,4,12,4c3.8,0,7.1-0.7,9.9-2.1c2.8-1.4,5.5-3.8,8.1-7.2h0.4l1.2,8.3h3.5v0V42.2
		C384.2,35.8,382.8,31.2,380,28.2z M379.5,55.5c0,5.7-1.6,10.1-4.8,13.3c-3.2,3.2-7.6,4.8-13.2,4.8c-3.7,0-6.5-0.9-8.5-2.7
		c-2-1.8-3-4.4-3-7.6c0-4.1,1.6-7.1,4.7-9.1c3.1-1.9,8.4-3.1,15.8-3.5l9.2-0.4V55.5z"/>
	<path class="st0" d="M251.1,12.1c-3.3,0-5.8,1.1-7.4,3.2s-2.4,5.3-2.4,9.6v0.3c-2.4-1-5-1.5-8-1.5c-3.9,0-7.4,0.8-10.4,2.4h-0.3
		h-0.2v-1.2c0-4.3-0.8-7.5-2.4-9.6c-1.6-2.1-4.1-3.2-7.4-3.2c-2.6,0-4.7,0.8-6.2,2.4c-1.5,1.6-2.3,3.8-2.3,6.5
		c0,3.5,3.7,7.7,11,12.4c-3,4.7-4.5,10.7-4.5,17.8c0,8.5,2.1,15,6.4,19.7c4.3,4.7,10.2,7,17.8,7c3,0,5.8-0.2,8.3-0.7
		c2.5-0.5,5.2-1.3,8.2-2.6v-4.3c-3.5,1.4-6.3,2.3-8.6,2.7c-2.3,0.4-4.9,0.6-7.9,0.6c-6.1,0-10.9-1.9-14.2-5.7c-3.3-3.8-5-9.3-5-16.5
		h37.8v-3.9c0-6-1.2-10.9-3.5-14.9c6.6-4.5,9.9-8.4,9.9-11.7c0-2.8-0.8-5-2.3-6.5C255.8,12.9,253.8,12.1,251.1,12.1z M215.8,47.2
		c0.4-4.5,1.4-8.3,3.1-11.3c1.6,1.1,3,2,4.1,2.8c3.4,2.4,6.4,4.8,8.8,7.1c2.5-2.3,5.4-4.7,8.8-7.1c1.3-0.9,3-2.1,5-3.4
		c1.6,3.1,2.5,7.1,2.5,11.9L215.8,47.2z"/>
</g>
</svg>
