<?xml version="1.0" encoding="utf-8"?>
<!-- Generator: Adobe Illustrator 27.1.1, SVG Export Plug-In . SVG Version: 6.00 Build 0)  -->
<svg version="1.1" id="Layer_1" xmlns="http://www.w3.org/2000/svg" xmlns:xlink="http://www.w3.org/1999/xlink" x="0px" y="0px"
	 viewBox="0 0 283 64" style="enable-background:new 0 0 283 64;" xml:space="preserve">
<path d="M53.9,59.9C53.9,59.9,53.8,59.9,53.9,59.9c-0.2,0-0.2,0.1-0.3,0.1c-0.2,0.3-0.5,0.2-0.8,0c-1-0.8-1.7-1.8-2.1-3
	c-0.1-0.3-0.3-0.5-0.4-0.8c-0.2-0.4-0.4-0.8-0.5-1.2c-0.1-0.4-0.3-0.7-0.6-1c-0.1-0.1-0.1-0.1-0.1-0.2c0-0.4-0.3-0.7-0.6-1
	c-0.1-0.1-0.2-0.2-0.1-0.3c0.1-0.4,0-0.6-0.4-0.7c0.1-0.2,0.2-0.3,0.3-0.5c-1,0.5-1.6-0.2-2.3-0.6c-1.1-0.7-2.2-1.5-3.3-2.2
	c-0.4-0.2-0.8-0.4-1.1-0.5c-0.2-0.1-0.3-0.2-0.2-0.4c0.1-0.2,0-0.4,0.1-0.7c0.1-0.4,0.2-0.8,0.3-1.1c0-0.1,0.3-0.1,0.4-0.1
	c0.6,0.2,1.2,0.4,1.9,0.6c1.7,0.4,3.4,0.4,5.1-0.3c0.9-0.4,1.7-0.9,2.3-1.7c0.1-0.1,0.2-0.2,0.4-0.3c0.1-0.1,0.2-0.1,0.2-0.2
	c0.2-0.7,0.6-1.5,0.7-2.2c0.1-1,0-2-0.3-2.9C51.8,37.2,51,36,50,34.9c-0.1-0.1-0.3-0.2-0.4-0.3c-0.3-0.3-0.4-0.4,0-0.6
	c0.3-0.2,0.6-0.4,0.9-0.6c0.2-0.1,0.4-0.3,0.6-0.5c0.1-0.1,0.3-0.2,0.4-0.2c1.7,0.6,3.4,0.6,5.2,0.8c0.7,0.1,1.3,0.2,2,0.4
	c0.4,0.1,0.8,0.3,1,0.7c0,0.1,0.1,0.1,0.1,0.2c-0.1-0.3,0-0.5,0.4-0.5c0,0,0.1,0,0.1,0c0.4-0.3,0.8-0.6,1.2-0.9
	c0.3-0.2,0.6-0.2,1-0.3c0.1,0,0.2-0.1,0.4-0.2c0,0,0.1-0.1,0.1-0.1c0.5-0.1,0.9-0.3,1.4-0.3c0.4,0,0.7-0.1,1-0.2
	c0.6-0.1,1.1-0.2,1.7-0.3c0.5-0.1,1-0.1,1.4-0.1c0.5,0,0.8,0.5,0.6,0.9c0.4,0,0.6-0.4,0.3-0.7c-0.1-0.1-0.2-0.2-0.4-0.3
	c-0.3-0.2-0.3-0.4-0.2-0.7c0.1-0.2,0.1-0.5,0.1-0.7c0-0.2-0.3-0.2-0.5-0.4c0.1,0.3,0.2,0.6,0.1,0.8c-0.1,0.2-0.4,0.5-0.7,0.6
	c-1,0.4-2,0.6-3.1,0.7c-0.1,0-0.2,0.1-0.3,0.1c0,0-0.1,0.1-0.1,0.1c-0.6,0.1-1.2,0.2-1.8,0.4c-0.1,0-0.3,0.1-0.4,0.1
	c-0.3,0.1-0.6,0.2-0.9,0.3c-0.1,0-0.2,0.1-0.3,0.1c-0.3,0.1-0.6,0.4-0.8-0.1c0,0-0.1-0.1-0.2-0.1c-1.6,0.1-3.2-0.3-4.8-0.5
	c-1.4-0.2-2.7-0.3-4-0.6c-1.1-0.3-1.9,0.3-2.7,0.7c-0.4,0.2-0.6,0.1-0.9-0.1c-1.6-1.1-3.2-2.2-4.9-3.2c-1.1-0.7-2.4-1.1-3.6-1.6
	c-0.2-0.1-0.3-0.2-0.2-0.4c0.1-0.4,0.2-0.8,0.3-1.2c0-0.1,0.1-0.1,0.2-0.2c1.2-0.8,2.5-1.5,3.7-2.3c0.3-0.2,0.6-0.3,0.9-0.5
	c0.3-0.2,0.6-0.2,0.9,0.1c0-0.2-0.1-0.4,0-0.5c0.1-0.1,0.3-0.2,0.5-0.3c-0.1-0.3,0-0.5,0.3-0.7c0.1-0.1,0.1-0.2,0.2-0.3
	c0.1-0.1,0.1-0.2,0.2-0.3c0.3-0.3,0.7-0.4,0.8-0.9c0-0.1,0.2-0.1,0.2-0.2c0.2-0.2,0.3-0.3,0.5-0.5c0,0,0.1-0.1,0.1-0.1
	c0.5-0.5,1-1,1.6-1.4c0.5-0.4,1.1-0.8,1.7-1.1c0.4-0.2,0.9,0,1.2,0.5c0.2-0.2,0.2-0.5-0.1-0.6c-0.2-0.1-0.4-0.2-0.6-0.2
	c-0.5-0.1-0.6-0.3-0.7-0.8c0-0.3-0.1-0.5-0.4-0.7c-0.1,0-0.2,0-0.4,0c0.5,0.5,0.5,0.9,0,1.4c-0.5,0.6-1.1,1.2-1.6,1.7
	c-0.5,0.4-1,0.8-1.5,1.2c-0.1,0.1-0.1,0.2-0.2,0.3c-0.1,0.2-0.3,0.3-0.5,0.5c-0.1,0.1-0.2,0.2-0.3,0.3c-0.2,0.2-0.5,0.4-0.7,0.7
	c-0.2,0.2-0.3,0.4-0.4,0.5c-0.1,0.2-0.3,0.2-0.3,0.1c-1.2,0.7-2.4,1.5-3.7,2.3c-1,0.6-2,1.1-3,1.7c-0.2,0.2-0.4,0.6-0.5,0.9
	c-0.1,0.3-0.2,0.5-0.3,1c-0.2-0.3-0.4-0.4-0.6-0.6c-0.3-0.3-0.5-0.6-0.8-0.9c-0.1-0.1-0.2-0.1-0.3-0.1c-0.4-0.1-0.8-0.2-1.2-0.2
	c-0.3-0.1-0.4-0.2-0.4-0.6c0.2-1,0.4-2,0.5-3.1c0.1-0.3,0.1-0.6,0.1-0.9c0-0.2-0.2-0.4-0.2-0.6c0-0.1-0.1-0.2-0.2-0.3
	c-0.2-1.4-0.6-2.7-1-4C33,16,33.1,15.8,33,15.5c-0.4-0.7-0.9-1.4-0.7-2.3c-0.7-0.3-1.1-1.2-0.8-2.3c-0.2-0.2-0.8,0.4-0.8-0.4
	c-0.4,0.1-0.7-0.2-0.7-0.6c-0.1-0.8-0.3-1.5-0.6-2.2c-0.4-1-0.8-2.1-1.1-3.2C28.1,4.3,28,4,27.9,3.6c-0.1-0.2-0.1-0.5,0-0.7
	c0-0.1,0.2-0.2,0.5-0.3c-0.2,0-0.4,0-0.5,0.1c-0.3,0.2-0.5,0.4-0.7,0.6c-0.1,0.1-0.2,0-0.4,0c-0.5-0.1-0.9,0.1-0.9,0.5
	c0.2-0.1,0.3-0.3,0.5-0.3c0.2,0,0.5,0.2,0.7,0.3c0.8,0.9,1.3,1.9,1.5,3c0.1,0.3,0.3,0.7,0.3,1c0.1,0.6,0.5,1,0.5,1.6
	c0,0.1,0.1,0.2,0.1,0.3c0.1,0.3,0.2,0.7,0.3,1c0.1,0.2,0.2,0.5,0.3,0.7c0,0.1,0.1,0.4,0,0.4c-0.2,0.1-0.3,0.1-0.5,0.1
	c-0.1,0-0.3-0.1-0.4-0.1c0.2,0.2,0.4,0.4,0.6,0.5c0.8,0.6,1.2,1.6,1.6,2.5c0.5,1.4,1,2.8,1.5,4.2c0.1,0.3,0.2,0.7,0.4,1
	c0.1,0.3,0,0.5-0.2,0.7c-0.3,0.3-0.4,0.7-0.3,1c0.2,0.7-0.2,2-0.4,2.9c-0.6-0.1-0.7-0.2-0.7-0.8c0-0.1,0-0.2,0-0.4
	c0.1-1.2-0.2-1.7-1.4-2c-0.3-0.1-0.5-0.3-0.6-0.5c-0.2-0.4-0.4-0.8-0.9-0.7c-0.1,0-0.2-0.1-0.3-0.2c-0.1-0.2-0.2-0.4-0.3-0.6
	c-0.1-0.3-0.3-1.5-0.5-1.5c-0.3-0.1,0.1-1.2,0.1-1.6c0,0,0,0,0-0.1c0.2-0.9,0.5-1.9,0.7-2.8c0-0.1,0-0.2,0-0.3c0-0.6,0-1.1-0.1-1.7
	c-0.1-1.4-0.2-2.7-0.3-4.1c0-0.2-0.2-0.5-0.4-0.7c-0.2-0.2-0.4-0.1-0.6,0.2c0.2,0.2,0.6,0.1,0.6,0.6c-0.3,0-0.5,0-0.8,0
	c0,0,0,0.1,0,0.1c0.3,0.1,0.6,0.2,0.9,0.4c0,0,0,0.1,0,0.1c-0.3,0-0.6,0.1-0.9,0.1c0,0,0,0.1,0,0.1c0.2,0.1,0.5,0.2,0.7,0.2
	c0,0,0,0.1,0,0.1c-0.1,0-0.3,0.1-0.4,0.1c0.7,0.3,0.8,0.8,0.8,1.4c0,0.5,0.1,0.9,0.1,1.4c0,0.5-0.1,1-0.1,1.6c0,0.2-0.1,0.4-0.1,0.6
	c0,0.4-0.1,0.7-0.1,1.1c-0.1,0.6-0.2,1.1-0.3,1.6c0,0,0,0,0,0c-0.1,0-0.4,1.5-0.5,1.6c-0.2,0.4-0.4,1.1-0.4,0.9
	c-0.9-2.6-2.8-4.3-5.1-5.7c-0.7-0.4-1.4-0.8-2.1-1.1c-1.3-0.7-2.7-0.8-4.2-0.6c-0.6,0.1-1.2,0.1-1.9,0c-0.7,0-1.3,0-1.9,0.3
	c-0.1,0.1-0.2,0.1-0.3,0.2c0,0,0,0.1,0,0.1c0.1,0,0.2,0,0.4,0c0.6,0.1,1.3,0.1,1.8,0.2c1.2,0.3,1.2,1.2,0.8,2.2
	c-0.1,0.2-0.3,0.4-0.3,0.6c0,0.1,0,0.3,0,0.4c0.1,0,0.1,0,0.2,0.1c0.5-0.6,0.9-1.2,1.4-1.8c0.1-0.2,0.2-0.5,0.5-0.2c0,0,0.1,0,0.1,0
	c0.5-0.3,1,0,1.4,0.1c0.2,0.1,0.2,0.4,0.1,0.6c-0.3,0.4-0.6,0.9-0.9,1.3c-0.1,0.1-0.1,0.2-0.2,0.4c0.1,0,0.3-0.1,0.4-0.1
	c0.4-0.2,0.8-0.4,1.2-0.6c0.1-0.1,0.3-0.2,0.4-0.3c0.2-0.2,0.3-0.2,0.4,0.1c0.1,0.3,0.3,0.4,0.6,0.2c0.2-0.1,0.3-0.1,0.4,0.2
	c0,0.1,0,0.1,0,0.3c0.4-0.3,0.6-0.1,0.8,0.2c0.1,0.1,0.4,0.2,0.5,0.3c1.1,0.6,1.5,1.6,1.8,2.7c0.3,1.2,0.2,2.5,0.1,3.8
	c0,0.1,0,0.1-0.1,0.2c0-0.1,0-0.2,0-0.4c0-0.2,0-0.4-0.3-0.4c-0.1,0-0.1-0.1-0.2-0.2c-0.1-0.2-0.1-0.4-0.2-0.6
	c-0.1-0.8-0.6-1.3-1.3-1.6c-0.2-0.1-0.3-0.2-0.5-0.3c-0.3-0.2-0.5-0.2-0.8,0.1c0.4,0.1,0.8,0.2,1.1,0.3c0.2,0.2,0.4,0.4,0.6,0.6
	c0.1,0.1,0.1,0.1,0.2,0.2c0.3,0.7,0.6,1.4,0.9,2.2c0.1,0.3,0.1,0.5,0.2,0.8c0,0-0.1,0-0.1,0.1c-0.2-0.1-0.3-0.3-0.5-0.4
	c-0.5,0.8-0.9,1.5-1.4,2.3c0.1,0,0.2,0.1,0.3,0.1c0.1,0.1,0.2,0.2,0.3,0.3c0,0,0,0.1,0,0.1c-0.7,0-1.4,0.1-2,0.1c-0.2,0-0.3,0-0.5,0
	c-0.3-0.1-0.6,0-1-0.2c-0.7-0.3-1-0.8-1.4-1.3c-0.3,0.2-0.3,0.4-0.1,0.6c0.8,0.8,1.6,1.5,2.9,1.3c0.5-0.1,1.1-0.1,1.8-0.2
	c-0.2,0.1-0.2,0.2-0.3,0.3c-1.4,0.7-2.7,1.3-4.3,1.4c-0.9,0.1-1.7-0.2-2.5-0.6c-0.1,0-0.2-0.2-0.3-0.3c-0.1-0.1-0.1-0.2-0.1-0.2
	c-0.5,0.1-0.5-0.4-0.7-0.7c-0.6,0.2-0.4-0.3-0.4-0.6c-0.6,0-0.7-0.1-0.5-0.6c0,0,0,0,0-0.1c0-0.7,0.1-1.4,0.1-2.1c0,0-0.1,0-0.1-0.1
	c-0.1,0.1-0.2,0.3-0.3,0.4c-0.2,0.4-0.4,0.7-0.7,1c-0.2,0.2-0.6,0.5-0.6,0.4c-0.3-0.2-0.6-0.5-0.7-0.8c-0.2-0.5-0.1-1,0.3-1.5
	c0.4-0.4,0.5-0.9,0.8-1.4c0,0-0.1-0.1-0.1-0.1c-0.1,0.1-0.3,0.2-0.4,0.3c-0.3,0.4-0.6,0.7-1,0.9c-0.6,0.2-1.1,0.1-1.5-0.3
	c-0.5-0.6-0.8-1.4-1-2.2c0,0-0.1,0-0.1,0c-0.1,0.1-0.2,0.3-0.1,0.4c0,0.5,0.1,1,0.2,1.4c0.3,1,0.7,2,1,3c0.2,0.7,0.6,1.4,1.1,2
	c1.4,1.4,2.9,2.7,4.7,3.6c1.5,0.8,3.2,1.1,4.9,1.1c0.1,0,0.3,0.1,0.4,0.1c-0.1,0.1-0.2,0.3-0.3,0.4c-0.5,0.3-1.1,0.6-1.6,0.8
	c0,0-0.1,0.1-0.1,0.1c0,0,0,0,0,0c-0.5,0.3-1.4,1.2-1.8,1.6c-0.3,0.2-0.6,0.4-0.8,0.7c-0.2,0.1-0.3,0.3-0.4,0.4
	c-0.4,0.3-0.8,0.6-1.3,0.9c-0.4,0.2-0.8,0.4-1.2,0.6c-0.5,0.3-1,0.5-1.6,0.1c0,0.1,0.1,0.3,0.1,0.4c0,0-0.1,0-0.1,0
	c-0.2-0.2-0.4-0.3-0.6-0.5c0,0-0.1,0-0.1,0.1c0.1,0.3,0.3,0.5,0.4,0.8c0,0-0.1,0.1-0.1,0.1c-0.3-0.2-0.5-0.4-0.8-0.5
	c0,0,0,0-0.1,0.1c0.2,0.2,0.3,0.4,0.5,0.7c-0.4,0.2-0.6-0.2-0.8-0.2c-0.2,0.3-0.2,0.5,0.1,0.6c0.2,0.1,0.6,0.1,0.8,0
	c1.2-0.6,2.4-1.3,3.6-1.9c0.5-0.3,1-0.6,1.4-0.8c0.1,0,0.2-0.1,0.2-0.2c0.7-0.7,1.3-1.4,2-2.1c0.1-0.1,0.2-0.3,0.4-0.5
	c0.6-0.3,1.2-0.6,1.8-0.8c0.3-0.1,0.6-0.3,0.7,0.2c0,0.1,0.2,0.1,0.4,0.1c0.2,0,0.5,0,0.7,0.1c0.1,0,0.3,0.2,0.3,0.3
	c0.1,0.5,0.4,0.6,0.8,0.6c0.5,0,0.8,0.1,1.1,0.5c0.5,0.7,1.2,0.8,2,0.5c0.1,0,0.1,0,0.2-0.1c0.3-0.1,0.7-0.4,1-0.3
	c0.4,0.2,0.8,0.5,1.2,0.9c0.1,0,0.1,0.3,0,0.3c-0.8,0.7-1.7,1.4-2.6,2.1c-0.4,0.3-0.8,0.5-0.9,1.1c-0.1,0.4-0.4,0.5-0.7,0.6
	c-1.5,0.5-3,0.9-4.5,1.4c-0.6,0.2-1.1,0.2-1.7,0.3c-0.1,0-0.1,0-0.2,0c-0.5-0.3-0.9,0.1-1.3,0.2c0,0,0,0.1,0,0.1
	c0.1,0.1,0.2,0.2,0.4,0.2c-0.1,0.1-0.3,0.2-0.4,0.3c-0.2,0.1-0.4,0.2-0.6,0.3c-0.3,0.1-0.5,0.2-0.8,0.3c-0.4,0.1-0.7,0.2-1.1,0.4
	c-0.8,0.3-1.6,0.6-2.5,0.8c-0.7,0.2-1.4,0.3-2.1,0.4c-0.4,0.1-0.7-0.3-0.5-0.7c-0.4,0-0.5,0.1-0.5,0.5c0,0.2-0.1,0.5-0.1,0.7
	c0,0.1,0.1,0.2,0.2,0.3C6.8,44.2,6.9,44.1,7,44c0,0.1,0.1,0.3,0.1,0.4C7,45,7.2,45.2,7.7,45c-0.4-0.2-0.4-0.5,0-0.7
	c0.9-0.6,1.9-1.1,3-1.2c0.2,0,0.4-0.1,0.7-0.2c0.1,0,0.3-0.1,0.4-0.1c0.6,0,1.2-0.3,1.7-0.7c0.4-0.3,1.1-0.3,1.5,0.3
	c0,0.1,0.1,0.1,0.1,0.1c0.4-0.3,0.8-0.6,1.2-0.9c0.4-0.2,0.8-0.2,1.1,0.3c0.3-0.9,1.1-0.7,1.6-1c0.1-0.1,0.3,0,0.3,0
	c0.4-0.2,0.7-0.4,1.1-0.5c1-0.3,1.9-0.7,2.8-1.2c0.1-0.1,0.3-0.1,0.4-0.1c0.3,0.1,0.5,0,0.7-0.2c1-0.9,2.1-1.8,3.1-2.7
	c0.3-0.3,0.5-0.3,0.7,0.1c0.5,1,1.5,1,2.4,1.1c0.3,0,0.6-0.3,0.9-0.5c0.1-0.1,0.2-0.2,0.3-0.3c0.1-0.1,0.2-0.1,0.3-0.1
	c0,0.1,0.1,0.3,0.1,0.4c-0.1,0.2-0.2,0.4-0.3,0.6c-0.3,0.4-0.5,0.7-0.8,1.1c0.3,0.3,0.6,0.6,0.8,0.9c0.1,0.1,0.1,0.4,0.1,0.5
	c-0.2,0.7-0.5,1.4-0.7,2.1c-0.2,0.4-0.3,0.8-0.2,1.3c0.1,1.4,0,2.8-0.1,4.1c0,1-0.1,2.1-0.2,3.1c0,0,0.1,0,0.1-0.1c0,0,0.1,0,0,0.1
	c-0.1,0.6-0.3,1.3-0.5,1.9c0,0.1,0,0.2,0,0.3c0,0.2-0.1,0.4-0.2,0.7c0,0.1-0.1,0.1-0.1,0.2c-0.1,0.5-0.1,1-0.2,1.5
	c-0.1,0.8-0.1,1.6-0.4,2.3c-0.1,0.3-0.2,0.6-0.2,0.8c-0.1,0.4-0.2,0.6-0.7,0.6c0,0.3,0.3,0.4,0.5,0.2c0.1-0.1,0.2-0.2,0.3-0.4
	c0,0.2,0.1,0.2,0.1,0.4c0.1-0.1,0.1-0.2,0.2-0.3c0.2,0.4,0.4,0.8,0.9,0.7c0.2,0,0.3-0.2,0.5-0.3c-0.3-0.1-0.6-0.1-0.7-0.2
	c-0.2-0.2-0.3-0.5-0.3-0.7c0-0.9,0.1-1.8,0.2-2.7c0-0.4,0.1-0.8,0.2-1.2c0.1-0.4,0.1-0.9,0.3-1.2C31,52.8,31,52.4,31,52
	c0-0.1,0-0.1,0-0.2c0.4-0.3,0.1-0.8,0.4-1.2c0.1-0.1,0.1-0.2,0.2-0.3c-0.1-0.3-0.1-0.3,0.6-0.4c-0.5-0.2-0.6-0.5-0.5-0.9
	c0.1-1.3,0.1-2.6,0.2-3.9c0-0.4,0-0.7,0-1.1c0-0.1,0.1-0.3,0.1-0.4c0.2-0.3,0.4-0.5,0.5-0.8c0.2-0.6,0.4-1.2,0.6-1.8
	c0.1-0.3,0.2-0.3,0.5-0.2c0.3,0.3,0.7,0.6,1,0.8c0.1,0,0.1,0.1,0.2,0.1c0,0,0,0,0-0.1c0.1,0.1,0.3,0.1,0.4,0.2c0,0,0,0.1,0,0.1
	c-0.1,0-0.2-0.1-0.2-0.1c0.7,0.5,1.4,1,2.2,1.4c0.7,0.4,1.5,0.8,2.3,1.2c0.3,0.2,0.4,0.4,0.4,0.7c-0.1,0.6-0.1,1.3-0.1,1.9
	c0,0.4,0.2,0.7,0.6,0.9c0.4,0.2,0.7,0.5,1.1,0.8c0.8,0.5,1.6,1.1,2.3,1.6c0.6,0.4,1.1,0.8,1.7,1c0.8,0.3,1.3,0.8,1.9,1.4
	c0.1,0.1,0.3,0,0.4,0.1c0.1,0,0.3,0,0.3,0.1c0.4,0.7,0.8,1.4,1.2,2.1c0.9,1.7,1.7,3.4,2.6,5.1c0.2,0.4,0.1,0.8-0.3,0.9
	c0.2,0.2,0.3,0.2,0.5,0c0.2-0.2,0.3-0.5,0.6-0.3c-0.1-0.2-0.1-0.4,0.2-0.3c0.2,0,0.5,0,0.7-0.1C53.8,60.3,53.8,60.1,53.9,59.9z
	 M7.1,21.6L7.1,21.6L7.1,21.6L7.1,21.6z M11.6,25.7C11.5,25.8,11.5,25.8,11.6,25.7c-0.1,0-0.1-0.1-0.1-0.1c0,0,0.1,0,0.2-0.1
	C11.6,25.6,11.6,25.7,11.6,25.7z M23.7,18.1c-0.3,0.2-0.3,0.2-0.5-0.2C23.4,17.9,23.5,18,23.7,18.1z M31.2,11.9
	C31.2,11.9,31.1,11.9,31.2,11.9C31.1,11.9,31.1,11.9,31.2,11.9C31.1,11.9,31.2,11.9,31.2,11.9z M32,13.6L32,13.6L32,13.6L32,13.6z
	 M33.3,19.6c0.2,0.2,0.2,0.2,0.1,0.5C33.4,19.9,33.4,19.7,33.3,19.6z M33.1,19c0.2,0.2,0.2,0.4,0.2,0.6C33.2,19.4,33.1,19.2,33.1,19
	z M33,18.4C33,18.4,33,18.4,33,18.4C32.9,18.4,32.9,18.4,33,18.4C32.9,18.4,33,18.3,33,18.4C33,18.3,33,18.4,33,18.4z M33.6,19.3
	c-0.2-0.4-0.3-0.8-0.3-1.2C33.5,18.5,33.7,18.9,33.6,19.3z M33.7,19.8c-0.1-0.1-0.2-0.3-0.1-0.5C33.7,19.5,33.7,19.6,33.7,19.8z
	 M33.8,21.1c-0.1,0.1-0.2,0.1-0.4,0C33.6,21,33.7,21,33.8,21.1C33.8,21,33.8,21,33.8,21.1z M34.2,21.2L34.2,21.2L34.2,21.2
	L34.2,21.2z M20.7,31.8C20.7,31.8,20.7,31.7,20.7,31.8c0.1,0,0.1,0,0.1,0C20.8,31.8,20.8,31.8,20.7,31.8
	C20.7,31.8,20.7,31.8,20.7,31.8z M23.5,26.5c0,0.2,0,0.4-0.2,0.4c0,0-0.1-0.1-0.1-0.1C23.1,26.6,23.3,26.5,23.5,26.5z M24.5,25.3
	c-0.2,0.4-0.5,0.7-0.8,1c0,0-0.1,0-0.1,0c0.1-0.2,0.1-0.5,0.2-0.6C24,25.4,24.2,25.2,24.5,25.3z M26.4,21.3c0.1-0.4,0.1-0.7,0.2-1.1
	c0-0.2,0.3-0.2,0.5-0.2c0.2,0.1,0.3,0.2,0.2,0.4c-0.1,0.2-0.1,0.4-0.2,0.6C26.9,21.4,26.8,21.4,26.4,21.3z M23.3,25.8
	C23.2,25.8,23.2,25.8,23.3,25.8C23.2,25.8,23.2,25.8,23.3,25.8C23.2,25.7,23.2,25.7,23.3,25.8C23.3,25.8,23.3,25.8,23.3,25.8z
	 M26,24.1c-0.1,0.1-0.2,0.3-0.4,0.4c-0.2,0.1-0.3,0.3-0.5,0.4c0-0.2,0-0.5-0.1-0.7c-0.1-0.2-0.1-0.3,0.1-0.4
	c0.3-0.2,0.6-0.5,0.9-0.8c0.1-0.1,0.2-0.1,0.3-0.1c0,0.2,0,0.3,0.1,0.4C26.3,23.6,26.2,23.9,26,24.1z M23.1,27.5
	C23.1,27.5,23.1,27.5,23.1,27.5C23.1,27.5,23.1,27.5,23.1,27.5C23,27.5,23.1,27.5,23.1,27.5C23.1,27.5,23.1,27.5,23.1,27.5z
	 M28.7,22c0,0,0-0.1,0-0.1c0,0,0,0,0,0C28.8,21.9,28.8,22,28.7,22z M28.2,22.9c-0.3,0-0.2-0.2-0.3-0.4c0,0,0-0.1,0-0.1
	c-0.1-0.4,0-0.6,0.4-0.7c0.1,0.1,0.2,0.4,0.4,0.3c0.1,0.2,0,0.3-0.1,0.4C28.6,22.7,28.4,22.9,28.2,22.9z M27.6,24.9
	c-0.1,0-0.2,0-0.2,0c-0.2-0.2-0.2-0.8,0-0.9c0.3-0.2,0.3-0.4,0.4-0.7c0-0.1,0.1-0.2,0.1-0.2c0.3,0.3,0.3,0.3,0.7,0.1
	c-0.2,0.2-0.1,0.5-0.4,0.5c0,0-0.1,0.1-0.1,0.1c-0.1,0.3-0.3,0.6-0.4,0.8C27.7,24.7,27.6,24.8,27.6,24.9z M23.7,29.9
	c0.1-0.2,0.2-0.3,0.4-0.4c0,0.2,0.1,0.4,0.1,0.6c-0.2,0-0.4,0.1-0.4,0.1c-0.1,0.3-0.3,0.4-0.7,0.4c0,0.2,0.1,0.3,0.1,0.4
	c-0.4,0.3-0.6,0.2-0.6-0.3c0.1-0.2,0.2-0.3,0.4-0.4c0.1-0.1,0.2-0.1,0.2-0.1C23.4,30.3,23.6,30.1,23.7,29.9z M24.6,28.9
	c0,0.1,0,0.2,0.1,0.3c-0.1,0-0.2,0.1-0.2,0c0-0.1-0.1-0.2-0.1-0.2C24.4,28.9,24.5,28.9,24.6,28.9z M30.6,25.7
	c-0.4,0.4-0.9,0.3-1.2-0.3c-0.1-0.2-0.2-0.3-0.3-0.5c-0.1-0.1-0.2-0.3-0.1-0.4c0-0.1,0.1-0.1,0.1-0.2c0-0.4,0.1-0.6,0.5-0.8
	c0,0,0-0.1,0-0.1c-0.1-0.4,0-0.4,0.3-0.4c0.1,0,0.2,0,0.3-0.1c0.2-0.2,0.5-0.3,0.5-0.7c0.3,0.1,0.3,0.4,0.4,0.6c0,0.1,0,0.3,0.1,0.4
	c0.2,0.3,0.1,0.7,0.1,1C31.2,24.8,31.1,25.3,30.6,25.7z M25.9,33.1c-0.1,0-0.3,0.1-0.3,0.2c-0.2,0.3-0.5,0.3-0.7,0.5
	c-0.2,0.1-0.3,0.1-0.4,0c-0.1-0.1-0.2-0.3-0.1-0.5c0-0.1,0.1-0.2,0.2-0.3c0.1-0.1,0.1-0.3-0.1-0.4c0,0-0.1-0.1-0.2-0.2
	c0.2,0,0.3-0.1,0.4-0.1c0-0.2,0-0.3,0-0.5c0.2-0.4,0.8-0.8,1.2-0.8c0.5,0,0.7,0.3,0.9,0.6c0.2,0.2,0,0.4-0.1,0.5c0,0,0,0.1,0,0.1
	C26.4,32.6,26.3,33,25.9,33.1z M24.8,37c0.1-0.3,0.1-0.3,0.5-0.5C25.3,36.8,25.2,37,24.8,37z M35.3,28.8L35.3,28.8L35.3,28.8
	L35.3,28.8z M34.1,30.3c-0.2-0.1-0.3-0.1-0.4-0.1c-0.4,0-0.6-0.1-0.8-0.5c0-0.2-0.1-0.3-0.2-0.5c0.2-0.6,0.4-0.7,0.9-0.6
	c-0.3,0.3-0.3,0.3-0.4,0.5c0.2,0.1,0.3,0.3,0.5,0.3c0.3,0,0.3,0.3,0.5,0.4c0,0,0.1,0.1,0,0.2C34.2,30,34.1,30.1,34.1,30.3z
	 M37.1,28.3C37,28.3,37,28.3,37.1,28.3C37,28.3,37,28.3,37.1,28.3C37,28.3,37.1,28.3,37.1,28.3C37.1,28.3,37.1,28.3,37.1,28.3z
	 M35.1,30.6C35.1,30.6,35.1,30.6,35.1,30.6C35.1,30.5,35.1,30.5,35.1,30.6C35.1,30.5,35.1,30.5,35.1,30.6
	C35.2,30.6,35.1,30.6,35.1,30.6z M36.7,29.4L36.7,29.4L36.7,29.4L36.7,29.4z M36.8,29.7C36.8,29.7,36.8,29.7,36.8,29.7L36.8,29.7
	C36.8,29.7,36.8,29.7,36.8,29.7C36.8,29.7,36.8,29.7,36.8,29.7z M32,38.6c0.2-0.1,0.4-0.2,0.6-0.3c0.3-0.1,0.5-0.3,0.9-0.4
	c0,0.1,0.1,0.2,0.1,0.3c-0.1,0.1-0.2,0.2-0.3,0.3c0,0.3,0,0.3-0.4,0.4c-0.1,0-0.2,0.1-0.3,0.1c-0.2,0-0.3,0-0.5,0
	C31.9,38.9,31.9,38.7,32,38.6z M34.4,34.6C34.4,34.6,34.4,34.6,34.4,34.6C34.4,34.6,34.4,34.6,34.4,34.6
	C34.4,34.6,34.4,34.6,34.4,34.6C34.4,34.6,34.4,34.6,34.4,34.6z M34.9,32.1C35,32.1,35,32.1,34.9,32.1c0,0.1,0,0.1,0,0.2
	C34.9,32.2,34.9,32.2,34.9,32.1z M39.9,32.2c-0.1,0-0.3,0-0.4,0c-0.1,0-0.2,0-0.3,0.2c-0.2,0.3-0.3,0.7-0.5,1c0,0.1-0.1,0.1-0.1,0.1
	c-0.1,0.1-0.6,0.1-1,0.1c-0.3,0-0.7,0.7-0.5,0.9c2.7,1.8,13.9,8.6,13.8,8.7c-0.2,0.2-13.6-8.4-13.7-8.1c-0.1,0.3-0.4,0.2-0.5,0.4
	c-0.1,0.1-0.3,0.3-0.4,0.4C36.2,35.9,36.1,36,36,36c-0.3,0-0.4,0.1-0.5,0.3c-0.2,0-0.3-0.1-0.5-0.1c-0.1,0.3-0.2,0.5-0.3,0.6
	c-0.3,0.1-0.5,0.2-0.7,0.2c-0.1,0-0.2,0-0.3,0c0-0.1,0-0.2,0-0.3c0.1-0.5,0.4-0.9,0.7-1.3c0.3-0.3,0.5-0.7,0.7-1.1
	c0-0.1,0-0.2,0-0.3c-0.2,0.1-0.4,0.1-0.5,0.2c0-0.1,0.1-0.2,0.1-0.3c0.4-0.4,0.6-0.9,0.7-1.4c0-0.1,0-0.3,0.1-0.4
	c0.1-0.2,0.1-0.2,0.4-0.1c-0.1,0.2-0.3,0.3-0.2,0.5c0,0.2-0.3,0.4-0.1,0.6c0.2,0,0.3-0.2,0.4-0.3c0.3-0.4,0.6-0.8,0.7-1.4
	c0,0,0-0.1,0.1-0.1c0.3-0.4,0.5-1,0.9-1.3c0,0,0,0,0,0c0.1-0.3,0.3-0.5,0.4-0.8c0.1-0.2,0.1-0.5,0.1-0.8c0-0.2,0.1-0.3,0.3-0.2
	c0.4,0.1,0.7,0.2,0.9,0.5c0.1,0.1,0.1,0.3,0.1,0.4c-0.1,0.4,0,0.7,0.2,1c0.2,0.3,0.4,0.6,0.3,1C39.9,31.4,39.9,31.8,39.9,32.2z
	 M31.8,42.6c-0.1,0.2-0.1,0.3-0.2,0.4c0,0-0.1,0-0.1-0.1C31.5,42.8,31.5,42.6,31.8,42.6z M49.9,35.1C49.9,35.1,49.9,35.1,49.9,35.1
	C49.8,35.1,49.8,35,49.9,35.1C49.9,35,49.9,35,49.9,35.1C49.9,35.1,49.9,35.1,49.9,35.1z M50.3,35.5L50.3,35.5L50.3,35.5L50.3,35.5z
	 M40.3,47.6c-0.1,0.1-0.2-0.1-0.2-0.2c0-0.1,0-0.3,0-0.4c0,0,0.1,0,0.1-0.1c0.1,0.1,0.2,0.2,0.3,0.3C40.5,47.4,40.4,47.5,40.3,47.6z
	 M47.7,52.6C47.6,52.6,47.6,52.6,47.7,52.6C47.6,52.5,47.6,52.5,47.7,52.6C47.6,52.5,47.6,52.5,47.7,52.6
	C47.7,52.5,47.7,52.6,47.7,52.6z M48,52.8c-0.1,0-0.1-0.1-0.2-0.1c0,0,0,0,0-0.1c0,0,0.1,0,0.1,0C48,52.7,48,52.8,48,52.8
	C48.1,52.8,48.1,52.8,48,52.8z M48.4,53.1L48.4,53.1L48.4,53.1L48.4,53.1z"/>
<g>
	<path d="M253.6,18.2c-0.6,0.3-1,0.8-1.3,1.4h-0.1c-0.2-0.6-0.6-1.1-1.1-1.5c-0.5-0.3-1.2-0.5-1.9-0.5c-0.8,0-1.5,0.2-2,0.5
		s-0.9,0.8-1.2,1.3h-0.1l-0.2-1.6h-0.9v10.3h1.1v-5.9c0-1.3,0.3-2.2,0.8-2.8c0.5-0.6,1.3-0.9,2.3-0.9c0.7,0,1.3,0.2,1.7,0.7
		c0.4,0.4,0.6,1.1,0.6,2.1v6.8h1.1v-6c0-1.2,0.3-2.1,0.8-2.7c0.5-0.6,1.3-0.9,2.3-0.9c0.7,0,1.3,0.2,1.7,0.7
		c0.4,0.4,0.6,1.1,0.6,2.1v6.8h1.1v-6.9c0-1.3-0.3-2.2-0.9-2.8c-0.6-0.6-1.4-0.9-2.4-0.9C254.9,17.7,254.2,17.9,253.6,18.2z
		 M234.9,19.9c0.6-0.8,1.5-1.2,2.6-1.2c0.8,0,1.5,0.2,2,0.6s0.9,0.9,1.1,1.6c0.2,0.7,0.3,1.4,0.3,2.3c0,1.3-0.3,2.4-0.8,3.2
		c-0.6,0.8-1.4,1.2-2.6,1.2c-1.2,0-2.1-0.4-2.6-1.2c-0.6-0.8-0.8-1.9-0.8-3.2C234,21.7,234.3,20.6,234.9,19.9z M241.6,20.3
		c-0.3-0.8-0.9-1.4-1.5-1.9s-1.5-0.7-2.5-0.7c-1.4,0-2.6,0.5-3.4,1.4c-0.8,0.9-1.2,2.3-1.2,3.9c0,1.1,0.2,2,0.6,2.8
		c0.4,0.8,0.9,1.4,1.6,1.9c0.7,0.4,1.5,0.7,2.5,0.7c1,0,1.8-0.2,2.5-0.7s1.2-1.1,1.6-1.9s0.5-1.7,0.5-2.8
		C242.1,22,241.9,21.1,241.6,20.3z M229.9,28.3c0.4-0.1,0.8-0.2,1.2-0.4v-1c-0.4,0.2-0.8,0.3-1.2,0.4c-0.5,0.1-0.9,0.2-1.5,0.2
		c-1.2,0-2.1-0.4-2.7-1.2c-0.6-0.8-0.9-1.8-0.9-3.1c0-1.4,0.3-2.4,1-3.2c0.7-0.8,1.6-1.2,2.8-1.2c0.8,0,1.5,0.2,2.2,0.5l0.3-1
		c-0.3-0.2-0.7-0.3-1.2-0.4c-0.4-0.1-0.9-0.1-1.4-0.1c-1,0-1.8,0.2-2.6,0.6c-0.7,0.4-1.3,1-1.7,1.8c-0.4,0.8-0.6,1.8-0.6,2.9
		c0,1.7,0.4,3,1.2,3.9c0.8,0.9,2,1.4,3.5,1.4C228.9,28.4,229.4,28.4,229.9,28.3z M220.2,28.4c0.6,0,0.9-0.3,0.9-1
		c0-0.6-0.3-0.9-0.9-0.9c-0.6,0-0.9,0.3-0.9,0.9C219.3,28.1,219.6,28.4,220.2,28.4z M209.5,19.9c0.6-0.8,1.5-1.2,2.6-1.2
		c0.8,0,1.5,0.2,2,0.6s0.9,0.9,1.1,1.6c0.2,0.7,0.3,1.4,0.3,2.3c0,1.3-0.3,2.4-0.8,3.2c-0.6,0.8-1.4,1.2-2.6,1.2
		c-1.2,0-2.1-0.4-2.6-1.2c-0.6-0.8-0.8-1.9-0.8-3.2C208.6,21.7,208.9,20.6,209.5,19.9z M216.2,20.3c-0.3-0.8-0.9-1.4-1.5-1.9
		s-1.5-0.7-2.5-0.7c-1.4,0-2.6,0.5-3.4,1.4c-0.8,0.9-1.2,2.3-1.2,3.9c0,1.1,0.2,2,0.6,2.8c0.4,0.8,0.9,1.4,1.6,1.9
		c0.7,0.4,1.5,0.7,2.5,0.7c1,0,1.8-0.2,2.5-0.7s1.2-1.1,1.6-1.9s0.5-1.7,0.5-2.8C216.7,22,216.5,21.1,216.2,20.3z M202.6,25.3v-6.5
		h3.2v-0.9h-3.2v-2.5h-0.7l-0.4,2.4l-1.5,0.3v0.6h1.5v6.6c0,1.1,0.2,1.9,0.7,2.3c0.5,0.5,1.1,0.7,2,0.7c0.3,0,0.6,0,0.9-0.1
		s0.5-0.1,0.7-0.2v-0.9c-0.2,0.1-0.4,0.1-0.7,0.2c-0.3,0-0.5,0.1-0.8,0.1C203.2,27.5,202.6,26.8,202.6,25.3z M198.1,13.5H197v14.7
		h1.1V13.5z M186.9,19.9c0.6-0.8,1.5-1.2,2.6-1.2c0.8,0,1.5,0.2,2,0.6s0.9,0.9,1.1,1.6c0.2,0.7,0.3,1.4,0.3,2.3
		c0,1.3-0.3,2.4-0.8,3.2c-0.6,0.8-1.4,1.2-2.6,1.2c-1.2,0-2.1-0.4-2.6-1.2c-0.6-0.8-0.8-1.9-0.8-3.2
		C186.1,21.7,186.4,20.6,186.9,19.9z M193.6,20.3c-0.3-0.8-0.9-1.4-1.5-1.9s-1.5-0.7-2.5-0.7c-1.4,0-2.6,0.5-3.4,1.4
		c-0.8,0.9-1.2,2.3-1.2,3.9c0,1.1,0.2,2,0.6,2.8c0.4,0.8,0.9,1.4,1.6,1.9c0.7,0.4,1.5,0.7,2.5,0.7c1,0,1.8-0.2,2.5-0.7
		s1.2-1.1,1.6-1.9s0.5-1.7,0.5-2.8C194.2,22,194,21.1,193.6,20.3z M182.5,24c-0.3-0.4-0.7-0.7-1.2-0.9c-0.5-0.2-1-0.5-1.7-0.7
		c-0.6-0.2-1.1-0.4-1.5-0.6s-0.7-0.4-1-0.6c-0.2-0.2-0.3-0.6-0.3-1c0-0.5,0.2-1,0.7-1.2c0.5-0.3,1.1-0.4,1.9-0.4
		c0.5,0,1,0.1,1.5,0.2s1,0.3,1.4,0.4l0.4-0.9c-0.4-0.2-0.9-0.3-1.5-0.5c-0.5-0.1-1.1-0.2-1.7-0.2c-1.1,0-2,0.2-2.7,0.7s-1,1.1-1,1.9
		c0,0.6,0.1,1.1,0.4,1.4s0.6,0.6,1.1,0.9c0.5,0.2,1,0.4,1.7,0.7c0.9,0.3,1.7,0.6,2.1,0.9c0.5,0.3,0.7,0.7,0.7,1.3
		c0,0.6-0.2,1.1-0.7,1.4c-0.5,0.3-1.2,0.5-2.2,0.5c-0.6,0-1.2-0.1-1.8-0.2c-0.6-0.1-1.1-0.3-1.6-0.6v1.1c0.4,0.2,0.8,0.3,1.4,0.5
		c0.5,0.1,1.2,0.2,1.9,0.2c1.3,0,2.3-0.3,3-0.8c0.7-0.5,1-1.2,1-2.2C182.9,24.9,182.8,24.4,182.5,24z M171,25.3v-6.5h3.2v-0.9H171
		v-2.5h-0.7l-0.4,2.4l-1.5,0.3v0.6h1.5v6.6c0,1.1,0.2,1.9,0.7,2.3c0.5,0.5,1.1,0.7,2,0.7c0.3,0,0.6,0,0.9-0.1s0.5-0.1,0.7-0.2v-0.9
		c-0.2,0.1-0.4,0.1-0.7,0.2c-0.3,0-0.5,0.1-0.8,0.1C171.6,27.5,171,26.8,171,25.3z M165.4,17.9v10.3h1.1V17.9H165.4z M165.2,14.9
		c0,0.6,0.2,0.9,0.7,0.9c0.5,0,0.8-0.3,0.8-0.9c0-0.6-0.3-0.8-0.8-0.8C165.4,14.1,165.2,14.4,165.2,14.9z M161.4,23
		c0,1.4-0.3,2.5-0.8,3.3c-0.6,0.8-1.4,1.2-2.5,1.2c-1.2,0-2-0.4-2.5-1.1c-0.5-0.7-0.7-1.8-0.7-3.2v-0.1c0-1.4,0.3-2.5,0.8-3.3
		c0.5-0.7,1.4-1.1,2.6-1.1C160.3,18.7,161.4,20.1,161.4,23z M153.7,13.5v14.7h0.8l0.2-1.7h0.1c0.3,0.5,0.7,1,1.2,1.3
		c0.5,0.4,1.3,0.5,2.1,0.5c1.4,0,2.5-0.5,3.2-1.5c0.7-1,1.1-2.3,1.1-3.9c0-1.8-0.4-3.1-1.1-4c-0.7-0.9-1.8-1.3-3.1-1.3
		c-0.9,0-1.7,0.2-2.2,0.6c-0.6,0.4-1,0.9-1.3,1.5h-0.1c0-0.3,0-0.6,0.1-1c0-0.4,0-0.8,0-1.2v-4.1H153.7z M141.2,20.9
		c0.2-0.5,0.6-0.9,1-1.3c0.5-0.3,1-0.5,1.7-0.5c0.3,0,0.6,0,0.9,0.1c0.3,0,0.5,0.1,0.8,0.2l-0.1,2.7c-0.1,1-0.3,1.8-0.7,2.4
		c-0.4,0.6-1,0.8-1.9,0.8c-0.7,0-1.2-0.2-1.6-0.7c-0.4-0.4-0.6-1.1-0.6-2C140.8,22,141,21.4,141.2,20.9z M150.1,17.7
		c-0.6-1-1.4-1.8-2.4-2.4s-2.3-0.8-3.7-0.8c-1.6,0-3.1,0.3-4.3,1s-2.2,1.6-2.8,2.9s-1,2.7-1,4.4c0,1.5,0.3,2.8,0.9,3.9
		c0.6,1.1,1.4,1.9,2.5,2.5c1.1,0.6,2.3,0.9,3.8,0.9c0.8,0,1.5-0.1,2.2-0.2c0.7-0.1,1.3-0.3,1.9-0.6v-0.9c-0.6,0.2-1.2,0.4-1.9,0.6
		c-0.7,0.1-1.4,0.2-2.1,0.2c-2,0-3.5-0.6-4.6-1.7c-1.1-1.1-1.6-2.7-1.6-4.8c0-1.5,0.3-2.8,0.9-3.9s1.4-2,2.5-2.6s2.3-0.9,3.8-0.9
		c1.2,0,2.3,0.2,3.2,0.7c0.9,0.5,1.6,1.2,2.1,2.1c0.5,0.9,0.7,2,0.7,3.2c0,0.8-0.1,1.4-0.2,2c-0.2,0.6-0.4,1.1-0.7,1.4
		c-0.3,0.3-0.7,0.5-1.2,0.5c-0.5,0-0.8-0.1-1-0.4c-0.2-0.3-0.4-0.8-0.4-1.5c0-0.2,0-0.4,0-0.6c0-0.2,0-0.4,0-0.7l0.2-3.4
		c-0.3-0.1-0.7-0.2-1.2-0.3c-0.5-0.1-1-0.1-1.5-0.1c-0.8,0-1.5,0.2-2.2,0.6s-1.1,0.9-1.4,1.5c-0.3,0.7-0.5,1.4-0.5,2.2
		c0,1.1,0.3,2,0.8,2.6s1.3,0.9,2.2,0.9c1.4,0,2.3-0.6,2.9-1.9h0c0.1,0.6,0.3,1,0.6,1.3s0.8,0.5,1.4,0.5c0.7,0,1.3-0.2,1.8-0.7
		s0.8-1,1.1-1.8c0.2-0.7,0.3-1.5,0.3-2.3C151,19.9,150.7,18.7,150.1,17.7z M126.5,19.9c0.6-0.8,1.5-1.2,2.6-1.2c0.8,0,1.5,0.2,2,0.6
		c0.5,0.4,0.9,0.9,1.1,1.6c0.2,0.7,0.3,1.4,0.3,2.3c0,1.3-0.3,2.4-0.8,3.2c-0.6,0.8-1.4,1.2-2.6,1.2c-1.2,0-2.1-0.4-2.6-1.2
		c-0.6-0.8-0.8-1.9-0.8-3.2C125.6,21.7,125.9,20.6,126.5,19.9z M133.2,20.3c-0.3-0.8-0.9-1.4-1.5-1.9s-1.5-0.7-2.5-0.7
		c-1.4,0-2.6,0.5-3.4,1.4c-0.8,0.9-1.3,2.3-1.3,3.9c0,1.1,0.2,2,0.6,2.8c0.4,0.8,0.9,1.4,1.6,1.9c0.7,0.4,1.5,0.7,2.5,0.7
		c1,0,1.8-0.2,2.5-0.7c0.7-0.4,1.2-1.1,1.6-1.9s0.5-1.7,0.5-2.8C133.7,22,133.6,21.1,133.2,20.3z M123.1,17.9h-2.5v-1.1
		c0-0.9,0.2-1.5,0.5-1.9c0.3-0.4,0.8-0.6,1.5-0.6c0.3,0,0.5,0,0.8,0.1c0.3,0.1,0.5,0.1,0.7,0.2l0.3-0.9c-0.2-0.1-0.5-0.1-0.8-0.2
		c-0.3-0.1-0.6-0.1-1-0.1c-1,0-1.8,0.3-2.3,0.8c-0.5,0.6-0.8,1.4-0.8,2.6v1l-1.9,0.3v0.6h1.9v9.4h1.1v-9.4h2.5V17.9z M110,18.3
		c-0.6,0.4-1,0.8-1.3,1.4h-0.1l-0.2-1.8h-0.9v10.3h1.1v-5.6c0-2.6,1.1-3.9,3.4-3.9c0.9,0,1.5,0.2,2,0.7c0.4,0.5,0.7,1.2,0.7,2.2v6.7
		h1.1v-6.7c0-1.3-0.3-2.2-0.9-2.9c-0.6-0.6-1.5-0.9-2.7-0.9C111.3,17.7,110.6,17.9,110,18.3z M103.1,17.9v10.3h1.1V17.9H103.1z
		 M102.9,14.9c0,0.6,0.2,0.9,0.7,0.9c0.5,0,0.8-0.3,0.8-0.9c0-0.6-0.3-0.8-0.8-0.8C103.1,14.1,102.9,14.4,102.9,14.9z"/>
	<path d="M203.9,43.2c-0.4,0.1-0.8,0.1-1,0.2l0.4-4.8h5.8v-1h-6.7l-0.6,6.4l0.6,0.4c0.4-0.1,0.8-0.2,1.3-0.3
		c0.5-0.1,0.9-0.1,1.4-0.1c1.3,0,2.2,0.3,2.8,0.8c0.6,0.6,0.9,1.3,0.9,2.3c0,1.1-0.4,2-1.1,2.6s-1.7,0.9-2.8,0.9
		c-0.7,0-1.3-0.1-1.9-0.3c-0.6-0.2-1.2-0.4-1.6-0.7v1.1c0.4,0.2,0.9,0.4,1.5,0.6c0.6,0.1,1.3,0.2,2,0.2c1.6,0,2.8-0.4,3.7-1.2
		c0.9-0.8,1.4-1.9,1.4-3.3c0-1.3-0.4-2.3-1.2-3s-1.9-1.1-3.3-1.1C204.8,43.1,204.3,43.2,203.9,43.2z M191.4,41.3
		c0.2-0.9,0.6-1.6,1-2.1s1.2-0.7,2-0.7c0.8,0,1.5,0.2,2,0.7c0.5,0.5,0.8,1.2,1,2.1s0.3,2,0.3,3.3c0,2.1-0.3,3.6-0.8,4.7
		c-0.5,1-1.4,1.5-2.5,1.5c-1.2,0-2-0.5-2.5-1.5c-0.5-1-0.8-2.6-0.8-4.7C191.1,43.3,191.2,42.2,191.4,41.3z M198.5,40.8
		c-0.3-1.1-0.8-1.9-1.4-2.5c-0.7-0.6-1.5-0.9-2.6-0.9c-1.1,0-2,0.3-2.6,0.9c-0.7,0.6-1.1,1.4-1.4,2.5c-0.3,1.1-0.4,2.3-0.4,3.7
		c0,2.3,0.4,4.1,1.1,5.3c0.8,1.2,1.9,1.8,3.3,1.8c1.5,0,2.7-0.6,3.4-1.8c0.7-1.2,1.1-3,1.1-5.3C198.9,43.1,198.8,41.9,198.5,40.8z
		 M180.4,41.3c0.2-0.9,0.6-1.6,1-2.1s1.2-0.7,2-0.7c0.8,0,1.5,0.2,2,0.7c0.5,0.5,0.8,1.2,1,2.1s0.3,2,0.3,3.3c0,2.1-0.3,3.6-0.8,4.7
		c-0.5,1-1.4,1.5-2.5,1.5c-1.2,0-2-0.5-2.5-1.5c-0.5-1-0.8-2.6-0.8-4.7C180,43.3,180.1,42.2,180.4,41.3z M187.4,40.8
		c-0.3-1.1-0.8-1.9-1.4-2.5c-0.7-0.6-1.5-0.9-2.6-0.9c-1.1,0-2,0.3-2.6,0.9c-0.7,0.6-1.1,1.4-1.4,2.5c-0.3,1.1-0.4,2.3-0.4,3.7
		c0,2.3,0.4,4.1,1.1,5.3c0.8,1.2,1.9,1.8,3.3,1.8c1.5,0,2.7-0.6,3.4-1.8c0.7-1.2,1.1-3,1.1-5.3C187.8,43.1,187.7,41.9,187.4,40.8z
		 M168.3,37.7h-0.9l-3.8,2.8l0.6,0.8l1.9-1.5c0.3-0.2,0.5-0.4,0.6-0.5s0.3-0.3,0.5-0.5c0,0.3,0,0.7,0,1s0,0.8,0,1.4v10.3h1.1V37.7z
		 M153.7,46c0.6-0.5,1.3-0.9,2.3-1.3l0.4,0.2c1,0.3,1.7,0.8,2.3,1.3c0.5,0.5,0.8,1.1,0.8,1.9c0,0.9-0.3,1.6-0.9,2.1
		c-0.6,0.5-1.4,0.7-2.5,0.7c-1,0-1.8-0.3-2.4-0.8c-0.6-0.5-0.9-1.2-0.9-2C152.9,47.2,153.2,46.5,153.7,46z M158.3,39
		c0.5,0.4,0.8,1,0.8,1.7c0,0.7-0.2,1.3-0.7,1.8c-0.5,0.4-1.2,0.8-2,1.2c-0.9-0.3-1.6-0.7-2.1-1.1c-0.6-0.4-0.8-1-0.8-1.8
		c0-0.8,0.3-1.3,0.8-1.7c0.5-0.4,1.2-0.6,2.1-0.6C157.1,38.4,157.8,38.6,158.3,39z M154.1,37.8c-0.6,0.3-1.1,0.6-1.4,1.1
		c-0.3,0.5-0.5,1.1-0.5,1.7c0,0.6,0.1,1.1,0.4,1.5c0.3,0.4,0.6,0.8,1,1.1c0.4,0.3,0.9,0.6,1.4,0.8c-0.6,0.2-1.2,0.5-1.7,0.9
		c-0.5,0.3-0.9,0.8-1.2,1.2c-0.3,0.5-0.4,1.1-0.4,1.7c0,1.1,0.4,2,1.2,2.7s1.9,1,3.2,1c0.9,0,1.6-0.1,2.3-0.4s1.2-0.7,1.6-1.3
		s0.6-1.2,0.6-2c0-1-0.3-1.7-0.9-2.3c-0.6-0.6-1.4-1.1-2.4-1.5c0.9-0.4,1.6-0.8,2.1-1.4c0.5-0.5,0.8-1.2,0.8-2.1
		c0-1-0.4-1.8-1.1-2.4c-0.7-0.6-1.7-0.8-2.9-0.8C155.4,37.5,154.7,37.6,154.1,37.8z M147.9,38.4c-0.7-0.6-1.7-0.9-3-0.9
		c-0.9,0-1.7,0.1-2.4,0.4s-1.3,0.6-1.9,1l0.6,0.8c0.6-0.4,1.1-0.7,1.7-0.9c0.6-0.2,1.3-0.3,2-0.3c0.9,0,1.6,0.2,2.1,0.6
		s0.8,1,0.8,1.9c0,1-0.3,1.7-1,2.2c-0.7,0.5-1.6,0.7-2.7,0.7h-1.5v1h1.5c1.3,0,2.3,0.2,3,0.6c0.7,0.4,1.1,1.2,1.1,2.2
		c0,1-0.3,1.7-1,2.3s-1.6,0.8-2.9,0.8c-0.7,0-1.3-0.1-2-0.3c-0.7-0.2-1.3-0.4-1.8-0.6v1.1c0.5,0.3,1.1,0.5,1.8,0.6
		c0.6,0.1,1.3,0.2,2.1,0.2c1.7,0,2.9-0.4,3.8-1.1c0.8-0.7,1.3-1.7,1.3-2.9c0-1-0.3-1.7-0.9-2.3s-1.4-0.9-2.5-1.1v-0.1
		c0.9-0.2,1.6-0.5,2.1-1.1c0.5-0.6,0.8-1.3,0.8-2.2C148.9,39.8,148.6,39,147.9,38.4z M130.4,38.8c0.4,0.3,0.8,0.6,1,1
		c0.3,0.4,0.5,0.9,0.6,1.3s0.2,0.9,0.2,1.3c0,0.4-0.1,0.9-0.4,1.3c-0.3,0.4-0.7,0.8-1.2,1.1s-1.2,0.4-1.9,0.4c-1,0-1.8-0.3-2.3-0.9
		c-0.5-0.6-0.8-1.4-0.8-2.4c0-1.2,0.3-2.1,0.9-2.7c0.6-0.6,1.4-0.9,2.3-0.9C129.5,38.4,130,38.6,130.4,38.8z M132.9,40.4
		c-0.3-0.9-0.9-1.6-1.5-2.1s-1.5-0.8-2.5-0.8c-0.9,0-1.7,0.2-2.3,0.6c-0.6,0.4-1.1,0.9-1.5,1.6c-0.3,0.7-0.5,1.5-0.5,2.4
		c0,1.3,0.4,2.3,1.1,3.1c0.7,0.7,1.7,1.1,2.9,1.1c1,0,1.8-0.2,2.4-0.6c0.6-0.4,1-0.9,1.3-1.4h0.1c-0.1,2.1-0.5,3.7-1.3,4.8
		c-0.8,1.1-2,1.7-3.7,1.7c-0.7,0-1.4-0.1-1.9-0.3v1c0.2,0.1,0.5,0.1,0.9,0.2c0.4,0,0.7,0.1,1,0.1c1.4,0,2.6-0.3,3.5-1s1.6-1.6,2-2.8
		s0.6-2.7,0.6-4.3C133.4,42.3,133.2,41.3,132.9,40.4z M120.7,38.4c-0.7-0.6-1.7-0.9-3-0.9c-0.9,0-1.7,0.1-2.4,0.4s-1.3,0.6-1.9,1
		l0.6,0.8c0.6-0.4,1.1-0.7,1.7-0.9c0.6-0.2,1.3-0.3,2-0.3c0.9,0,1.6,0.2,2.1,0.6s0.8,1,0.8,1.9c0,1-0.3,1.7-1,2.2
		c-0.7,0.5-1.6,0.7-2.7,0.7h-1.5v1h1.5c1.3,0,2.3,0.2,3,0.6c0.7,0.4,1.1,1.2,1.1,2.2c0,1-0.3,1.7-1,2.3s-1.6,0.8-2.9,0.8
		c-0.7,0-1.3-0.1-2-0.3c-0.7-0.2-1.3-0.4-1.8-0.6v1.1c0.5,0.3,1.1,0.5,1.8,0.6c0.6,0.1,1.3,0.2,2.1,0.2c1.7,0,2.9-0.4,3.8-1.1
		c0.8-0.7,1.3-1.7,1.3-2.9c0-1-0.3-1.7-0.9-2.3s-1.4-0.9-2.5-1.1v-0.1c0.9-0.2,1.6-0.5,2.1-1.1c0.5-0.6,0.8-1.3,0.8-2.2
		C121.8,39.8,121.4,39,120.7,38.4z M105.5,50.3c-0.4-0.3-0.8-0.6-1-1.1c-0.3-0.4-0.5-0.9-0.6-1.3c-0.1-0.5-0.2-0.9-0.2-1.3
		c0-0.4,0.1-0.9,0.4-1.3c0.3-0.4,0.7-0.8,1.2-1.1s1.1-0.4,1.9-0.4c1,0,1.8,0.3,2.3,0.9c0.5,0.6,0.8,1.4,0.8,2.4
		c0,1.2-0.3,2.1-0.9,2.7c-0.6,0.6-1.3,0.9-2.3,0.9C106.5,50.7,105.9,50.6,105.5,50.3z M103.1,48.8c0.4,0.9,0.9,1.6,1.6,2.2
		c0.7,0.5,1.5,0.8,2.5,0.8c1.3,0,2.4-0.4,3.2-1.3c0.8-0.8,1.1-2,1.1-3.4c0-1.3-0.4-2.3-1.1-3.1c-0.7-0.7-1.7-1.1-2.9-1.1
		c-1,0-1.8,0.2-2.4,0.6c-0.6,0.4-1,0.9-1.3,1.4h-0.1c0.1-2.1,0.5-3.7,1.3-4.8c0.8-1.1,2-1.7,3.7-1.7c0.3,0,0.7,0,1,0.1
		c0.3,0,0.6,0.1,0.8,0.2v-1c-0.5-0.1-1.1-0.2-1.8-0.2c-1.4,0-2.6,0.3-3.5,1c-0.9,0.7-1.5,1.6-2,2.8c-0.4,1.2-0.6,2.7-0.6,4.3
		C102.6,46.8,102.7,47.8,103.1,48.8z"/>
</g>
</svg>
